<?xml version="1.0" standalone="no"?>
<!DOCTYPE svg PUBLIC "-//W3C//DTD SVG 20010904//EN"
 "http://www.w3.org/TR/2001/REC-SVG-20010904/DTD/svg10.dtd">
<svg version="1.0" xmlns="http://www.w3.org/2000/svg"
 width="512.000000pt" height="512.000000pt" viewBox="0 0 512.000000 512.000000"
 preserveAspectRatio="xMidYMid meet">
<metadata>
Created by potrace 1.16, written by Peter Selinger 2001-2019
</metadata>
<g transform="translate(0.000000,512.000000) scale(0.100000,-0.100000)"
fill="#000000" stroke="none">
<path d="M2282 4674 c-269 -49 -532 -209 -736 -449 -121 -142 -212 -314 -260
-495 -16 -56 -28 -85 -37 -84 -8 0 -38 4 -67 8 l-52 7 2 -43 c1 -24 -4 -74
-10 -113 -34 -208 8 -447 119 -667 21 -42 43 -79 48 -83 6 -3 29 4 53 16 23
12 44 17 45 12 2 -6 32 -52 66 -104 247 -369 310 -461 323 -466 42 -16 94
-302 94 -514 0 -142 7 -167 61 -225 26 -27 29 -34 19 -59 -14 -38 -5 -76 31
-121 29 -37 29 -37 9 -56 -27 -25 -25 -54 5 -84 29 -29 31 -42 9 -51 -35 -13
-34 -75 2 -96 21 -12 17 -27 -11 -49 -33 -26 -32 -55 5 -93 30 -31 30 -31 10
-50 -41 -37 -10 -115 48 -115 38 -1 93 -37 137 -90 49 -60 175 -169 202 -176
36 -10 65 2 139 57 89 67 140 115 169 160 18 28 32 38 61 42 81 13 110 84 54
130 -35 30 -37 37 -12 37 24 0 52 31 52 58 0 21 -20 47 -42 54 -9 3 -4 15 15
37 34 40 34 64 2 94 l-26 23 26 24 c27 25 32 58 14 92 -10 18 -6 26 30 58 33
31 41 44 41 73 0 20 -5 39 -11 43 -8 4 3 21 30 46 63 57 78 101 85 251 6 126
45 336 82 452 35 105 154 306 263 443 41 52 42 52 99 53 l57 1 -48 11 -48 12
51 80 c28 44 69 117 92 162 38 77 42 82 68 77 22 -5 28 -2 33 18 10 35 9 38
-12 38 -11 0 -23 5 -26 10 -3 6 3 10 15 10 26 0 60 17 60 30 0 6 -9 10 -20 10
-23 0 -23 0 -9 73 l12 57 63 0 64 0 0 -34 c0 -51 -9 -65 -45 -72 -32 -6 -33
-8 -55 -97 -60 -244 -190 -491 -413 -787 -44 -59 -45 -61 -9 -23 65 70 273
380 306 457 3 6 13 1 25 -12 12 -13 22 -18 26 -12 7 12 25 4 25 -11 0 -5 -9
-9 -20 -9 -22 0 -25 -7 -11 -28 4 -8 19 -12 32 -10 50 7 26 78 -25 78 -43 0
-50 23 -22 77 31 61 89 230 106 306 13 55 14 57 45 57 36 0 45 15 45 83 l0 37
101 0 101 0 -4 175 c-2 96 0 175 5 175 4 0 12 11 19 25 15 32 -12 75 -47 75
-36 0 -62 -43 -46 -76 6 -14 20 -28 31 -31 16 -4 20 -14 20 -52 0 -25 3 -97 7
-158 l6 -113 -98 0 -97 0 5 33 c13 85 -31 371 -83 540 l-18 57 22 0 c32 0 66
28 66 54 0 32 -37 76 -64 76 -22 0 -66 -37 -66 -56 0 -5 11 -36 24 -69 23 -54
23 -61 9 -77 -16 -18 -10 -38 12 -38 30 0 74 -205 82 -382 l6 -138 -59 0 -60
0 0 143 c0 231 -35 384 -137 594 -39 82 -68 125 -117 177 -115 123 -204 211
-253 253 l-49 40 35 36 c19 21 42 37 51 37 22 0 169 -133 245 -223 36 -42 67
-74 69 -72 8 8 -56 80 -171 193 -134 130 -149 136 -205 74 l-35 -39 -93 54
c-107 63 -246 115 -364 137 -99 19 -295 19 -398 0z m450 -53 c148 -39 352
-139 342 -166 -5 -13 -11 -12 -34 5 -45 32 -192 100 -203 93 -5 -3 28 -23 74
-45 46 -21 98 -50 118 -65 l34 -26 17 21 c17 20 17 20 76 -25 108 -83 261
-243 217 -226 -14 5 -13 0 9 -28 15 -19 32 -33 39 -31 7 2 9 -3 6 -13 -4 -9
10 -41 33 -76 52 -80 57 -99 34 -116 -17 -12 -21 -9 -49 38 -39 67 -117 172
-130 175 -5 2 -18 -8 -28 -21 -14 -19 -15 -29 -7 -44 8 -16 6 -23 -10 -34 -21
-14 -21 -15 5 -45 14 -16 25 -35 25 -41 0 -22 -19 -10 -40 24 -12 19 -26 32
-32 29 -10 -7 10 -34 57 -76 34 -31 47 -35 38 -12 -4 11 1 22 13 31 16 12 17
16 5 36 -13 19 -12 21 1 10 8 -7 30 -42 48 -78 18 -35 37 -62 42 -59 11 7 -37
94 -99 182 -44 62 -50 87 -15 66 25 -16 96 -119 139 -203 l38 -73 -30 -24
c-17 -13 -25 -24 -18 -24 7 0 24 10 38 23 27 22 27 23 11 60 l-15 38 29 11
c17 5 30 14 30 19 0 5 -16 42 -35 82 -20 39 -29 63 -20 52 59 -72 145 -303
170 -455 18 -115 18 -110 2 -110 -9 0 -19 31 -30 98 -22 129 -45 202 -63 202
-11 0 -12 -4 -5 -18 16 -31 48 -173 62 -274 10 -76 10 -120 1 -205 -7 -59 -15
-118 -18 -130 -10 -38 -24 -14 -18 30 5 29 3 39 -4 32 -5 -5 -13 -29 -17 -52
-5 -33 -3 -43 11 -51 20 -11 15 -49 -16 -119 l-20 -45 -27 17 c-20 13 -28 15
-31 6 -16 -47 -126 -245 -224 -401 -131 -210 -144 -235 -167 -305 -14 -44 -19
-50 -41 -48 l-25 3 23 -12 c24 -12 26 -16 13 -37 -8 -12 -12 -13 -26 -1 -25
21 -32 3 -38 -102 -6 -82 -4 -98 8 -98 21 0 19 -41 -2 -46 -15 -4 -17 -14 -14
-56 3 -51 -6 -67 -38 -68 -8 0 -11 7 -8 20 3 13 0 20 -9 20 -11 0 -14 -18 -14
-80 0 -72 -2 -80 -19 -80 -13 0 -20 -10 -25 -31 -9 -46 -7 -79 4 -79 6 0 10
20 10 45 0 33 4 45 15 45 12 0 15 -13 15 -60 l0 -60 -51 -28 c-28 -15 -64 -37
-79 -50 -15 -12 -38 -22 -50 -22 l-21 0 21 30 c12 16 29 30 38 30 9 0 31 14
49 32 31 30 33 36 33 100 0 51 3 68 14 68 19 0 26 23 26 90 0 63 5 60 -62 45
l-27 -5 -4 -153 -3 -152 1 170 0 170 60 -3 c90 -5 93 1 97 176 3 139 4 144 28
163 l25 20 -30 -3 -30 -3 -6 -157 c-3 -87 -9 -161 -13 -165 -4 -5 -40 -10 -79
-13 l-72 -5 -1 -172 -1 -172 -50 -46 c-49 -43 -54 -45 -112 -45 -48 0 -61 3
-61 15 0 11 11 15 41 15 61 0 79 14 79 60 0 32 4 40 19 40 14 0 17 -6 13 -25
-5 -27 7 -32 39 -15 18 10 19 19 13 180 -6 133 -4 173 6 185 7 9 19 14 27 11
7 -3 13 -1 13 5 0 6 -12 9 -27 7 l-28 -3 -5 -184 c-3 -110 -9 -186 -15 -188
-11 -4 -8 359 4 417 6 32 10 35 50 41 43 6 61 20 61 50 0 16 19 29 41 29 6 0
9 -30 7 -72 l-3 -72 -35 -10 -35 -10 30 -4 c21 -3 34 2 47 18 15 19 18 43 18
160 l0 139 53 6 54 7 51 106 c28 59 83 159 123 222 96 154 151 269 155 327 l4
48 -18 -61 c-25 -82 -57 -146 -143 -284 -69 -110 -169 -299 -169 -319 0 -16
-22 -25 -75 -31 l-50 -5 -3 -76 c-3 -73 -4 -77 -28 -82 l-25 -4 2 71 c3 86 6
96 32 105 14 5 17 10 9 15 -7 4 -22 -4 -36 -19 -27 -29 -41 -20 -26 19 16 43
51 52 102 27 25 -11 48 -21 52 -21 3 0 16 21 27 47 16 39 18 51 8 69 -6 12 -9
36 -7 53 3 24 1 31 -12 31 -30 0 -53 25 -46 48 7 21 10 20 63 -23 51 -41 83
-56 83 -37 0 4 40 69 88 145 70 108 95 156 117 228 20 67 25 93 16 102 -8 8
-11 4 -11 -15 0 -15 -5 -39 -11 -55 -6 -15 -13 -39 -15 -53 -7 -35 -37 -90
-108 -200 -35 -52 -68 -105 -75 -117 -15 -30 -20 -29 -71 10 -74 56 -84 62
-77 50 4 -6 3 -14 -3 -18 -22 -14 -10 -54 20 -70 34 -18 36 -25 15 -65 -25
-48 -35 -80 -26 -80 5 0 14 14 21 30 7 17 16 30 21 30 14 0 11 -28 -6 -60 -14
-27 -17 -28 -46 -18 -16 6 -28 15 -26 22 3 6 12 28 21 48 l16 37 -29 15 c-28
15 -30 14 -46 -10 -9 -14 -19 -41 -22 -61 -3 -19 -17 -46 -29 -59 -27 -26 -30
-60 -9 -88 23 -31 18 -44 -17 -48 l-33 -3 0 -57 c0 -50 -2 -58 -18 -58 -10 0
-15 -4 -12 -10 3 -6 17 -10 31 -10 18 0 24 5 24 23 0 13 -5 28 -11 34 -18 18
-1 73 22 73 17 0 19 -8 19 -65 0 -61 -2 -66 -26 -75 -14 -6 -38 -10 -54 -10
l-30 0 -2 -212 -3 -213 -23 1 c-23 1 -28 -9 -34 -66 -3 -22 -9 -25 -45 -28
l-43 -3 0 50 c0 41 4 51 20 56 11 3 20 10 20 15 0 5 -8 6 -17 3 -15 -6 -16 -4
-6 8 8 10 14 75 17 189 3 96 8 217 11 268 6 81 9 92 25 92 27 0 50 38 50 81 0
28 5 38 23 46 22 10 24 20 30 100 6 76 35 231 68 355 l9 36 48 -25 c26 -15 48
-27 50 -29 2 -1 -2 -12 -8 -24 -6 -11 -9 -26 -7 -33 3 -7 10 3 17 20 12 32 12
32 41 18 34 -18 33 -16 15 -60 -17 -39 -24 -42 -67 -20 -37 20 -46 14 -70 -44
-11 -25 -31 -62 -44 -81 -20 -28 -26 -54 -31 -125 -6 -75 -11 -92 -31 -111
-21 -20 -23 -29 -23 -120 l0 -100 -30 -17 -30 -18 0 -164 c0 -98 -4 -166 -10
-170 -15 -9 -12 -42 4 -48 8 -3 17 -3 20 0 3 4 6 88 6 188 l0 181 30 22 c30
22 30 24 30 118 0 89 2 98 23 115 21 16 25 30 30 107 9 124 10 126 55 102 20
-11 37 -19 38 -17 15 17 62 127 54 127 -5 0 -21 -22 -35 -50 -25 -50 -37 -58
-64 -41 -12 8 -9 20 14 75 15 36 33 66 39 66 6 -1 22 -7 36 -15 14 -8 30 -14
36 -15 6 0 30 44 54 98 52 117 92 205 97 211 2 3 8 0 14 -6 8 -8 7 -17 -4 -34
-15 -20 -15 -23 1 -35 26 -20 48 -17 60 10 9 20 7 27 -16 48 -81 75 -105 75
-138 3 -21 -46 -24 -59 -13 -71 9 -11 5 -11 -19 3 -29 16 -30 19 -17 44 22 41
83 251 91 308 5 41 10 51 23 47 9 -2 31 -8 50 -11 l34 -7 -7 -69 c-6 -68 -6
-69 23 -87 23 -14 27 -21 20 -40 -11 -28 -22 -28 -87 3 -61 28 -62 28 -62 16
0 -10 85 -48 120 -53 22 -3 29 5 57 62 33 68 36 69 33 8 -1 -35 1 -38 57 -66
60 -30 61 -32 49 -94 -9 -46 10 -32 24 17 15 55 8 67 -58 91 -63 23 -65 26
-53 68 9 34 8 38 -12 45 -19 8 -24 4 -37 -24 -13 -28 -18 -32 -37 -24 -24 9
-30 43 -17 106 l6 30 95 -29 c53 -15 103 -28 113 -28 22 0 44 78 35 121 -6 25
-4 28 27 31 l33 3 3 88 c2 74 5 87 20 87 15 0 17 -12 13 -127 -2 -71 -6 -118
-8 -105 -3 15 -11 22 -27 22 -20 0 -24 -7 -30 -46 -3 -26 -6 -55 -6 -66 0 -23
40 -41 57 -25 15 15 33 164 33 280 l0 87 -35 0 -35 0 0 -90 c0 -87 -1 -90 -22
-90 -35 0 -44 -11 -51 -60 -6 -45 -6 -45 8 -15 17 37 19 16 3 -37 -11 -39 -13
-40 -47 -34 -20 3 -67 16 -106 28 -58 19 -71 27 -73 47 -4 24 -3 24 62 18 73
-7 71 -8 78 68 3 25 7 30 28 29 14 -1 32 -4 40 -8 9 -3 24 0 35 8 18 13 19 19
7 109 -16 133 -31 172 -62 171 -21 -2 -30 8 -57 65 -34 71 -68 121 -84 121 -6
0 1 -15 15 -32 33 -44 87 -161 78 -169 -4 -4 -35 -17 -70 -29 -34 -13 -65 -26
-67 -30 -3 -4 3 -37 11 -73 18 -73 14 -97 -15 -97 -11 0 -23 -4 -26 -10 -3 -5
-16 -10 -28 -10 -19 0 -24 9 -39 83 -9 45 -20 92 -23 104 -6 19 -2 25 21 33
68 26 95 43 90 57 -3 8 3 17 17 22 35 14 61 47 51 68 -7 16 -8 16 -11 -4 -4
-22 -46 -63 -65 -63 -4 0 -11 14 -15 32 -5 27 -7 29 -13 13 -4 -12 -1 -32 7
-48 14 -27 13 -28 -29 -47 -59 -27 -65 -25 -83 16 l-15 37 100 94 100 95 -50
72 c-28 40 -61 82 -73 94 -21 20 -25 20 -43 8 -17 -13 -22 -12 -50 9 l-31 24
-23 -24 c-13 -14 -21 -28 -17 -31 4 -4 15 3 25 16 l19 23 71 -68 c72 -67 103
-74 37 -8 -31 31 -38 53 -16 53 4 0 36 -37 71 -82 l63 -83 -96 -90 c-96 -90
-107 -108 -87 -145 9 -17 5 -21 -30 -31 -22 -7 -40 -16 -40 -22 0 -5 8 -6 18
-2 9 3 29 9 43 12 25 5 28 2 43 -51 14 -45 36 -148 36 -162 0 -2 -30 -4 -66
-4 -41 0 -63 -4 -59 -10 3 -5 24 -10 46 -10 l39 0 0 -51 c0 -51 0 -51 -30 -47
-16 3 -30 1 -30 -4 0 -4 8 -8 18 -8 40 -1 44 -12 27 -94 -19 -90 -48 -188 -75
-251 l-19 -44 -55 25 c-79 36 -95 31 -115 -36 -13 -41 -15 -60 -7 -73 8 -12 3
-47 -18 -133 -16 -64 -32 -158 -36 -210 -6 -81 -10 -96 -30 -112 -17 -14 -25
-33 -29 -68 -5 -42 -9 -49 -30 -52 l-24 -4 7 119 c3 65 9 169 12 232 6 102 5
116 -11 127 -17 13 -17 16 -1 57 13 35 14 50 6 69 -13 26 0 86 67 313 80 274
104 345 122 355 45 23 23 90 -29 90 -16 0 -32 -5 -35 -11 -5 -7 -13 -5 -25 6
-10 9 -45 27 -77 40 l-58 24 -3 65 c-3 64 -3 65 25 68 27 3 28 5 29 65 1 34 4
70 8 78 4 11 2 15 -6 13 -8 -3 -14 -29 -16 -71 -3 -61 -5 -67 -24 -67 -21 0
-21 2 -14 144 4 96 3 147 -4 151 -7 4 -10 -44 -10 -144 l0 -151 -80 0 c-47 0
-80 -4 -80 -10 0 -6 32 -10 75 -10 l74 0 3 -76 3 -77 85 -36 c51 -22 85 -42
86 -51 0 -8 3 -24 7 -36 4 -12 -3 -55 -18 -105 -32 -105 -106 -367 -135 -476
l-22 -83 -39 0 -39 0 0 299 0 299 25 6 c13 3 43 3 65 0 44 -7 73 7 63 32 -4
10 -24 14 -78 14 -53 0 -76 4 -85 15 -11 14 -15 14 -35 1 -13 -8 -51 -16 -86
-18 -51 -2 -64 -6 -67 -20 -3 -16 5 -18 61 -18 46 0 68 -4 77 -15 10 -12 14
-92 18 -305 l5 -290 -36 0 c-25 0 -37 5 -41 18 -3 9 -23 82 -46 162 -23 80
-64 218 -91 307 -36 116 -48 167 -41 179 5 9 7 25 5 34 -4 14 11 26 61 50 48
24 68 40 72 57 4 14 4 83 2 154 -5 145 -13 133 85 145 75 8 87 29 87 149 l0
85 43 0 c23 0 59 -3 80 -6 32 -6 37 -10 31 -28 -5 -16 -3 -18 6 -10 6 7 10 20
8 30 -4 25 -53 33 -200 33 l-118 1 0 -58 c0 -53 -2 -60 -25 -70 -23 -10 -25
-17 -25 -72 0 -57 -1 -60 -32 -76 -38 -19 -68 -44 -68 -56 0 -4 19 5 42 22 22
16 45 30 50 30 4 0 8 -60 8 -133 l0 -134 -61 -36 c-42 -25 -69 -35 -84 -31
-52 13 -79 -58 -34 -89 22 -16 27 -29 90 -236 94 -308 119 -401 119 -439 -1
-20 4 -68 9 -107 12 -88 14 -325 2 -325 -5 0 -12 35 -15 78 -10 111 -36 274
-47 294 -13 25 -11 47 6 64 19 20 19 54 -1 82 -19 28 -48 28 -75 1 -23 -23
-21 -69 6 -99 33 -37 68 -177 81 -328 l7 -84 -29 4 c-28 3 -29 5 -34 69 -5 65
-22 103 -44 96 -18 -6 -46 39 -46 75 0 18 -6 42 -14 53 -18 27 -88 221 -136
380 -50 166 -64 257 -57 370 3 52 2 82 -3 70 -13 -31 -11 -203 4 -277 12 -63
12 -68 -5 -68 -11 0 -19 9 -21 23 -3 24 -36 34 -66 21 -13 -6 -9 -9 17 -13 48
-8 53 -31 7 -31 -42 0 -56 20 -56 79 0 36 3 41 23 41 13 0 28 5 35 12 14 14
16 57 3 76 -9 15 -114 31 -203 32 -63 0 -88 16 -88 56 0 42 -33 64 -94 64 -87
0 -86 2 -86 -111 l0 -99 180 0 c122 0 180 3 180 11 0 7 -52 10 -166 8 -188 -3
-184 -5 -184 76 0 89 4 95 69 95 69 0 77 -5 86 -52 4 -21 12 -42 19 -47 6 -5
68 -15 136 -21 127 -11 137 -14 140 -40 5 -31 -1 -40 -25 -40 -21 0 -25 5 -25
32 0 21 -3 29 -10 22 -14 -14 0 -183 17 -200 9 -8 34 -14 64 -14 45 0 49 -2
55 -27 3 -16 12 -52 20 -82 9 -29 14 -54 12 -55 -2 -2 -54 -29 -116 -62 l-112
-58 -30 34 c-16 19 -42 63 -57 98 -15 34 -31 62 -35 62 -12 0 28 -94 59 -141
16 -23 37 -58 48 -79 11 -20 33 -53 49 -74 l30 -38 -25 -19 c-38 -29 -59 -33
-73 -13 -31 41 -76 134 -67 134 6 0 23 -22 39 -50 15 -27 32 -50 39 -50 6 0
-6 29 -28 65 -48 80 -72 132 -93 208 -10 31 -22 57 -28 57 -6 0 -8 -10 -3 -27
4 -16 8 -41 9 -58 1 -16 6 -38 10 -47 4 -9 2 -26 -5 -39 -11 -21 -12 -22 -25
-5 -22 31 -75 189 -66 198 4 4 42 17 82 29 41 11 78 25 82 32 9 15 -2 69 -18
86 -11 12 -25 12 -91 2 -115 -19 -173 -32 -173 -40 0 -3 54 2 121 14 120 20
121 20 135 0 30 -41 15 -59 -66 -78 -41 -10 -80 -25 -87 -33 -9 -13 -6 -34 19
-103 16 -47 36 -96 43 -107 9 -14 10 -25 4 -31 -7 -7 0 -31 21 -72 17 -34 28
-66 25 -72 -4 -5 -2 -8 4 -7 15 4 214 -308 250 -392 17 -40 34 -91 37 -114 4
-22 13 -66 21 -96 8 -30 17 -123 20 -207 4 -97 10 -150 16 -146 15 9 1 259
-20 360 l-17 85 24 19 c14 10 20 19 13 19 -6 0 -15 -4 -18 -10 -9 -15 -25 -12
-25 5 0 8 -11 40 -25 71 -30 67 -31 84 -7 84 11 -1 26 -20 42 -53 24 -49 27
-52 69 -57 33 -4 49 -12 64 -32 27 -37 13 -53 -23 -26 -28 20 -30 20 -54 4
-30 -19 -34 -51 -9 -78 31 -35 67 -21 101 39 30 56 1 101 -73 111 -42 6 -51
11 -53 30 -2 13 4 32 12 41 9 10 14 25 10 34 -5 15 -8 15 -29 1 -17 -11 -29
-13 -42 -5 -11 5 -25 6 -33 1 -10 -6 -23 8 -50 53 -20 34 -70 114 -111 177
-103 157 -131 208 -120 214 5 4 28 -28 51 -70 23 -41 44 -73 47 -71 2 3 -14
41 -36 86 -23 45 -37 81 -31 81 5 0 10 7 10 15 0 21 13 19 27 -4 14 -23 5 -35
-14 -20 -26 22 -13 -10 41 -98 52 -84 53 -88 33 -93 -15 -4 -18 -8 -10 -13 13
-8 53 10 115 51 l37 24 -44 55 c-25 30 -45 58 -45 62 0 7 232 133 235 128 1
-1 21 -60 45 -130 36 -109 40 -131 29 -142 -28 -27 -181 -115 -200 -115 -11 0
-19 7 -19 17 0 20 28 53 47 53 7 0 13 5 13 10 0 14 -17 12 -56 -6 -45 -21 -58
-45 -42 -79 18 -39 50 -42 100 -8 95 65 188 115 204 109 20 -8 15 -45 -8 -60
-14 -8 -21 -6 -32 9 -12 16 -15 17 -16 4 0 -8 5 -20 10 -25 8 -8 -2 -19 -29
-37 -48 -32 -58 -33 -84 -9 -19 16 -20 16 -9 -4 10 -19 8 -23 -18 -34 -35 -15
-60 -40 -39 -40 8 0 25 9 39 20 14 11 36 20 49 20 13 0 39 9 57 21 l33 20 15
-36 c24 -56 55 -167 62 -219 6 -40 4 -46 -11 -46 -12 0 -16 6 -12 20 3 11 1
18 -4 14 -12 -7 -11 -41 1 -49 15 -9 12 -75 -2 -76 -7 -1 -22 -1 -33 0 -18 1
-17 -1 3 -11 34 -17 57 1 57 45 0 19 3 39 8 43 17 18 4 106 -32 214 -35 104
-37 116 -22 127 9 7 21 13 27 13 14 0 35 -24 38 -42 1 -7 5 -19 10 -27 5 -7
11 -91 14 -186 5 -166 4 -173 -17 -194 -13 -13 -34 -21 -56 -21 -37 0 -86 -20
-117 -48 -14 -12 -18 -31 -18 -88 0 -63 3 -76 25 -103 22 -25 34 -30 78 -33
l52 -3 3 -134 c2 -123 4 -133 22 -138 17 -4 20 -14 20 -54 0 -46 -2 -49 -25
-49 -21 0 -25 5 -25 28 0 15 -14 47 -30 72 -27 40 -30 53 -30 123 0 42 -3 77
-7 77 -5 0 -7 -42 -5 -92 3 -74 7 -97 22 -113 26 -28 43 -76 31 -88 -20 -20
-47 0 -73 52 -25 48 -28 66 -28 148 0 55 -4 93 -10 93 -9 0 -17 -91 -11 -130
10 -68 23 -116 36 -137 22 -33 9 -44 -16 -13 -26 34 -49 114 -49 172 0 26 -4
48 -10 48 -16 0 -11 -84 9 -150 15 -49 16 -59 4 -49 -40 34 -47 70 -54 274 -6
160 -12 221 -32 306 -26 108 -77 243 -118 314 -13 21 -18 35 -11 31 7 -4 12
-3 12 3 0 11 -86 149 -103 166 -6 6 -4 -1 5 -15 34 -56 80 -140 75 -140 -11 0
-133 209 -186 321 -61 126 -121 290 -121 327 0 33 26 50 87 58 32 4 61 7 66 6
4 -1 7 3 7 8 0 13 -18 13 -97 -1 -85 -15 -95 -33 -69 -128 28 -101 31 -124 15
-119 -17 6 -54 96 -79 193 -72 280 -35 583 103 850 150 288 466 543 771 619
94 24 231 38 301 31 88 -8 187 -26 209 -37 14 -8 17 -7 14 4 -12 37 -231 64
-383 48 -169 -19 -355 -85 -467 -166 -36 -25 -53 -33 -61 -25 -14 14 -16 12
81 70 94 56 219 105 342 132 115 26 348 21 462 -10z m-899 -211 c-4 -4 -46
-40 -92 -79 -184 -157 -296 -318 -372 -536 -15 -44 -33 -81 -39 -83 -14 -5
-14 -5 21 95 56 161 153 320 274 450 82 89 191 177 207 167 5 -4 6 -10 1 -14z
m655 -342 c-3 -99 -4 -103 -28 -114 -14 -7 -50 -14 -80 -16 l-55 -3 -3 47 c-3
42 -1 48 25 60 25 12 28 19 31 65 3 56 7 60 75 62 l38 1 -3 -102z m1295 -60
c27 -21 31 -61 8 -82 -27 -25 -63 -17 -79 17 -13 26 -12 31 9 53 25 27 38 29
62 12z m-2456 -350 c-18 -70 -29 -227 -24 -335 6 -126 -6 -168 -19 -66 -15
125 11 423 38 423 6 0 8 -10 5 -22z m2081 -74 c7 -27 14 -83 15 -124 2 -61 -1
-75 -13 -75 -12 0 -17 20 -22 90 -4 50 -11 104 -16 122 -6 17 -7 34 -4 37 14
14 28 -4 40 -50z m-49 -16 c6 -29 13 -79 17 -110 6 -54 5 -58 -14 -58 -32 0
-52 -27 -52 -71 l0 -40 -77 7 c-65 5 -76 4 -65 -7 6 -7 12 -22 12 -32 0 -16
-5 -18 -26 -13 -15 4 -39 10 -55 13 -28 5 -29 8 -29 59 l0 54 44 0 c25 0 47 4
51 9 3 5 18 12 34 16 40 8 44 25 26 103 -9 36 -12 69 -8 73 9 9 103 47 120 48
6 1 16 -22 22 -51z m-2147 32 l37 -11 -6 -133 c-4 -83 -1 -170 6 -232 20 -160
83 -347 119 -357 9 -2 41 -49 71 -105 30 -55 75 -123 101 -150 58 -62 159
-209 205 -298 73 -144 35 -98 -166 201 -74 110 -146 220 -160 245 -13 25 -27
47 -30 50 -4 3 -8 14 -10 25 -3 11 -11 21 -20 23 -22 4 -33 -26 -17 -45 10
-12 9 -18 -7 -29 -33 -24 -48 -12 -87 66 -36 71 -88 212 -88 236 0 15 52 25
65 13 12 -12 35 -11 35 2 0 5 -4 8 -9 5 -5 -3 -14 1 -21 9 -9 11 -17 12 -30 5
-38 -20 -48 -12 -61 48 -27 120 -9 442 25 442 6 0 28 -5 48 -10z m2454 -232
c-4 -62 -13 -142 -21 -178 -11 -47 -13 -53 -10 -20 3 25 8 90 11 145 6 114 12
165 21 165 3 0 3 -51 -1 -112z m-166 -140 c0 -33 3 -40 11 -28 8 12 9 10 5
-10 -3 -14 -6 -28 -6 -32 0 -4 -7 -5 -15 -2 -17 7 -22 114 -5 114 6 0 10 -19
10 -42z m-2190 -105 c7 -32 25 -93 41 -136 34 -91 33 -87 15 -87 -28 0 -96
212 -87 273 1 4 5 7 10 7 5 0 15 -26 21 -57z m694 -90 c16 -54 48 -152 72
-217 24 -66 44 -121 44 -123 0 -2 -6 -3 -12 -3 -21 1 -158 440 -138 440 3 0
19 -44 34 -97z m1473 -117 c-14 -31 -28 -56 -31 -56 -2 0 8 27 22 60 14 32 28
57 30 55 2 -2 -7 -29 -21 -59z m-394 38 c13 -5 11 -14 -10 -62 -23 -52 -48
-92 -42 -67 1 6 -1 18 -5 27 -5 10 1 35 13 62 21 49 21 49 44 40z m447 -4 c0
-17 -56 -123 -80 -150 -27 -32 -24 -21 25 78 37 74 55 98 55 72z m-1910 -10
c0 -5 -4 -10 -10 -10 -5 0 -10 5 -10 10 0 6 5 10 10 10 6 0 10 -4 10 -10z
m1547 -74 c-4 -9 -11 -16 -17 -16 -15 0 -24 26 -16 47 6 15 8 15 23 1 9 -9 13
-24 10 -32z m-353 -7 c-2 -39 -17 -69 -28 -58 -4 4 23 99 29 99 1 0 1 -19 -1
-41z m204 -47 c10 -7 10 -15 -2 -44 l-15 -35 -81 40 c-71 35 -80 43 -80 67 0
61 6 62 88 20 43 -21 83 -43 90 -48z m-1571 72 c-3 -4 7 -33 24 -65 16 -33 27
-59 24 -59 -2 0 -18 26 -34 59 -27 52 -30 71 -13 71 3 0 3 -3 -1 -6z m62 -79
c0 -5 -8 6 -19 25 -11 19 -19 40 -19 45 0 6 8 -6 19 -25 11 -19 19 -39 19 -45z
m1908 -9 c-3 -7 -1 -18 3 -22 6 -6 -17 -45 -54 -94 -103 -137 -120 -152 -58
-50 32 52 69 114 82 138 23 41 38 57 27 28z m-897 -216 c0 -180 -2 -210 -15
-210 -13 0 -15 28 -15 194 0 107 3 201 6 210 18 46 24 -4 24 -194z m-100 -5
c0 -168 -2 -205 -14 -205 -11 0 -15 36 -18 183 -4 177 1 227 22 227 6 0 10
-72 10 -205z m160 124 c0 -16 7 -32 15 -37 14 -7 14 -23 4 -126 -6 -65 -14
-130 -18 -145 -18 -65 -26 -14 -28 174 -2 178 -1 198 12 181 8 -11 15 -32 15
-47z m-1060 31 c6 -11 8 -20 6 -20 -3 0 -10 9 -16 20 -6 11 -8 20 -6 20 3 0
10 -9 16 -20z m24 4 c3 -8 2 -12 -4 -9 -6 3 -10 10 -10 16 0 14 7 11 14 -7z
m1696 -224 c-6 -11 -13 -20 -16 -20 -2 0 0 9 6 20 6 11 13 20 16 20 2 0 0 -9
-6 -20z m-1010 -69 c3 -40 2 -81 -2 -91 -4 -11 -3 -22 2 -25 6 -4 10 -80 10
-180 0 -174 0 -175 -24 -190 -20 -13 -29 -14 -46 -5 -18 10 -21 19 -18 51 2
27 0 39 -9 39 -14 0 -18 -67 -5 -86 14 -22 50 -34 74 -25 45 17 47 29 50 222
3 169 4 184 21 187 41 8 46 -20 45 -276 -1 -275 9 -245 -88 -274 -37 -11 -46
-18 -48 -39 -2 -15 5 -32 18 -44 16 -15 20 -30 20 -85 0 -43 5 -73 15 -86 21
-28 18 -34 -15 -34 -23 0 -30 5 -30 19 0 11 -3 26 -6 34 -3 10 2 17 13 20 10
3 4 5 -14 6 l-33 1 0 114 c0 63 -4 126 -10 140 -8 23 -15 26 -60 26 -75 0 -92
21 -88 112 3 70 4 73 37 92 18 11 56 23 84 27 83 14 82 11 79 235 -2 157 0
195 10 192 8 -3 15 -30 18 -77z m969 2 c-12 -21 -27 -42 -32 -48 -11 -11 9 29
31 63 24 37 25 25 1 -15z m-271 -33 c-11 -34 -33 -54 -47 -46 -21 14 21 89 44
80 10 -4 11 -12 3 -34z m-471 -96 c2 -6 -6 -14 -19 -17 -27 -7 -32 -3 -24 18
6 18 37 17 43 -1z m86 -41 c3 -32 4 -59 3 -61 -7 -6 -75 102 -70 110 3 4 18 8
33 8 27 0 28 -3 34 -57z m-53 -22 c15 -30 14 -31 -40 -31 -54 0 -55 1 -40 31
7 12 21 19 40 19 19 0 33 -7 40 -19z m-60 -198 c0 -8 -13 -13 -35 -13 l-35 0
1 83 0 82 35 -70 c19 -38 34 -75 34 -82z m119 132 c4 -5 -61 -85 -69 -85 -9 0
-43 39 -66 74 l-18 29 74 -7 c41 -4 77 -9 79 -11z m41 -75 l0 -70 -35 0 c-45
0 -46 18 -2 87 17 29 33 53 35 53 1 0 2 -31 2 -70z m455 60 c6 -9 -21 -160
-31 -169 -2 -2 -4 34 -4 81 0 46 3 88 7 91 9 10 21 9 28 -3z m-625 -440 l0
-270 -30 0 -30 0 0 270 0 270 30 0 30 0 0 -270z m27 -137 c-1 -76 -3 -14 -3
137 0 151 2 213 3 138 2 -76 2 -200 0 -275z m63 137 c0 -233 -2 -270 -15 -270
-13 0 -15 37 -15 270 0 233 2 270 15 270 13 0 15 -37 15 -270z m68 102 c2
-106 -1 -162 -8 -162 -6 0 -10 -35 -11 -87 0 -49 -4 -97 -9 -108 -5 -12 -9 91
-9 253 -1 255 0 273 17 270 15 -3 17 -20 20 -166z m302 -43 c0 -37 -4 -49 -15
-49 -18 0 -17 -3 -6 38 6 18 6 32 1 32 -15 0 -23 -68 -17 -134 3 -34 2 -67 -2
-74 -4 -8 -11 40 -14 105 -5 100 -4 120 9 130 29 21 44 4 44 -48z m96 -65 c-3
-8 -13 -14 -22 -14 -14 0 -16 7 -11 41 7 56 31 71 35 23 2 -20 1 -42 -2 -50z
m-636 35 c0 -22 -5 -29 -20 -29 -15 0 -20 7 -20 29 0 28 16 44 33 34 4 -2 7
-17 7 -34z m-59 -27 c-21 -7 0 -22 30 -22 l29 0 0 -105 0 -105 -35 0 c-28 0
-35 4 -35 19 0 11 -4 23 -10 26 -5 3 -10 37 -10 75 0 58 -3 71 -21 83 -32 23
-22 59 21 73 34 11 35 11 38 -14 2 -15 -1 -28 -7 -30z m694 -94 c-4 -35 -14
-76 -23 -92 -26 -43 -94 -88 -128 -84 -28 3 -27 5 25 33 85 47 91 56 91 128 0
66 4 77 28 77 11 0 13 -12 7 -62z m-635 -163 c0 -12 -14 -15 -70 -15 -56 0
-70 3 -70 15 0 12 14 15 70 15 56 0 70 -3 70 -15z m536 -96 c3 -6 2 -15 -4
-21 -12 -12 -873 -11 -885 1 -28 28 14 31 443 31 305 0 441 -3 446 -11z m-271
-139 c-339 -13 -591 -19 -575 -14 23 7 451 21 625 21 148 0 147 0 -50 -7z
m215 -39 c0 -16 -11 -19 -92 -25 -50 -3 -230 -6 -400 -6 -255 0 -308 2 -308
14 0 11 49 15 253 23 138 5 318 10 400 11 137 2 147 1 147 -17z m-497 -48
c-35 -2 -91 -2 -125 0 -35 2 -7 3 62 3 69 0 97 -1 63 -3z m-210 -10 c-7 -2
-19 -2 -25 0 -7 3 -2 5 12 5 14 0 19 -2 13 -5z m592 -54 c-168 -13 -172 -16
-20 -18 111 -1 137 -4 127 -13 -10 -10 -108 -14 -402 -16 -335 -3 -390 -1
-390 11 0 23 23 27 178 28 81 1 212 5 292 9 80 3 186 7 235 7 l90 0 -110 -8z
m-447 -76 c-26 -2 -71 -2 -100 0 -29 2 -8 3 47 3 55 0 79 -1 53 -3z m255 -40
c-18 -2 -48 -2 -65 0 -18 2 -4 4 32 4 36 0 50 -2 33 -4z m307 -43 c0 -11 -1
-20 -2 -21 -26 -5 -735 -17 -765 -13 -55 8 -59 33 -5 35 230 9 477 16 610 17
156 2 162 1 162 -18z m-397 -57 c-51 -2 -136 -2 -190 0 -54 1 -12 3 92 3 105
0 149 -2 98 -3z m367 -62 c0 -4 -62 -11 -137 -15 -76 -4 -223 -14 -328 -22
-266 -20 -295 -19 -295 6 0 18 7 20 78 21 42 1 183 5 312 8 129 4 265 8 303 9
37 1 67 -2 67 -7z m20 -41 c0 -5 -15 -11 -32 -14 -53 -8 -525 -26 -628 -25
l-95 1 150 14 c326 31 605 42 605 24z"/>
<path d="M2362 4570 c-78 -11 -169 -37 -199 -56 -27 -17 -30 -52 -8 -80 14
-18 15 -17 9 18 -7 45 9 58 111 84 80 21 331 25 400 7 22 -6 46 -12 54 -14 7
-2 15 1 18 7 9 27 -266 51 -385 34z"/>
<path d="M2780 4559 c0 -11 -5 -29 -10 -40 -9 -15 -7 -19 6 -19 24 0 232 -103
268 -133 l29 -24 -23 -40 -22 -41 -112 53 c-108 52 -202 79 -299 88 -71 7 -67
-10 6 -18 139 -16 321 -87 417 -163 25 -19 71 -60 102 -90 49 -48 55 -58 46
-75 -10 -20 -11 -20 -22 -1 -32 56 -180 164 -308 224 -120 56 -248 87 -248 60
0 -5 14 -10 31 -10 37 0 162 -41 232 -77 88 -44 184 -112 251 -177 l64 -61 16
35 16 35 -57 55 c-32 31 -73 67 -92 81 -33 26 -33 26 -17 55 9 16 22 37 29 47
10 16 7 23 -23 48 -46 39 -140 92 -212 119 -32 12 -58 22 -58 23 0 1 4 17 9
35 8 25 7 32 -5 32 -8 0 -14 -9 -14 -21z"/>
<path d="M2441 4522 c-13 -4 -33 -19 -44 -34 -17 -23 -19 -36 -13 -100 7 -69
10 -76 53 -121 25 -27 48 -46 51 -43 3 3 -16 28 -41 55 -47 50 -47 51 -47 121
0 58 4 74 21 91 21 21 28 21 130 15 72 -4 109 -3 109 4 0 5 -21 10 -47 10 -27
0 -70 2 -98 5 -27 2 -61 1 -74 -3z"/>
<path d="M2060 4488 c-24 -13 -46 -28 -48 -35 -2 -6 22 2 52 18 31 17 56 32
56 35 0 9 -17 3 -60 -18z"/>
<path d="M2312 4423 l3 -78 -33 -15 c-28 -12 -33 -18 -30 -45 3 -32 9 -33 71
-21 23 5 27 2 27 -19 0 -20 -7 -26 -42 -35 -149 -38 -184 -60 -180 -113 3 -28
-1 -37 -17 -42 -12 -3 -21 -11 -21 -16 0 -13 7 -11 36 8 22 14 25 21 19 50 -6
33 -5 34 48 58 30 13 82 29 116 36 l61 13 0 44 0 44 -32 -7 c-18 -4 -40 -9
-49 -11 -9 -3 -19 2 -23 11 -4 10 5 19 29 29 l35 15 0 85 c0 53 -4 86 -10 86
-7 0 -10 -29 -8 -77z"/>
<path d="M2625 4460 c-9 -15 4 -30 26 -30 12 0 19 7 19 20 0 21 -33 29 -45 10z"/>
<path d="M2186 4451 c-7 -11 18 -33 27 -24 4 3 7 12 7 20 0 15 -26 18 -34 4z"/>
<path d="M2045 4393 c-59 -30 -60 -31 -52 -39 3 -4 27 6 52 20 42 25 65 27 65
6 0 -6 -27 -23 -60 -40 -33 -17 -69 -39 -79 -49 -19 -19 -20 -19 -31 10 -11
25 -30 40 -30 24 0 -12 60 -124 70 -130 14 -9 13 1 -5 35 -15 28 -14 30 18 54
39 30 159 86 170 79 4 -2 7 -22 7 -43 0 -36 -2 -39 -45 -55 -24 -10 -52 -26
-61 -36 -18 -20 -34 -17 -34 7 0 8 25 26 54 41 30 15 53 30 50 35 -8 12 -124
-50 -124 -67 0 -7 9 -29 19 -47 11 -18 27 -50 36 -70 l15 -38 -38 -19 -39 -20
-28 60 c-16 32 -32 59 -37 59 -12 0 -10 -6 23 -66 l32 -56 -29 -24 c-16 -13
-32 -23 -36 -24 -4 0 -12 -9 -18 -21 -9 -16 -8 -26 4 -44 14 -22 14 -23 -16
-29 -16 -3 -45 -22 -63 -42 l-33 -35 -36 31 c-20 18 -36 38 -36 45 0 7 31 53
69 101 38 49 67 92 65 96 -3 5 -1 7 4 6 6 -2 12 1 14 7 1 5 -9 11 -24 12 -29
2 -35 -6 -18 -23 7 -7 -13 -39 -60 -97 -38 -49 -70 -96 -70 -106 0 -20 63 -81
83 -81 7 0 44 -32 82 -71 93 -94 99 -97 131 -62 43 45 47 69 23 113 -16 29
-20 47 -15 73 13 67 95 127 132 96 25 -21 35 -56 23 -86 -12 -31 -30 -48 -82
-72 -22 -11 -34 -22 -28 -25 19 -12 96 39 118 77 32 57 -3 127 -64 127 -45 0
-98 -50 -108 -103 l-7 -37 -30 38 c-50 62 -52 71 -28 97 12 13 49 38 83 56 34
18 65 37 69 43 3 5 -4 31 -18 58 -13 26 -24 52 -24 57 0 6 29 24 65 41 35 17
67 35 70 41 4 5 4 33 0 60 -7 47 -9 50 -31 45 -17 -5 -26 -1 -34 14 -13 25
-14 25 -75 -7z m-58 -559 c23 -32 42 -67 43 -76 0 -10 -13 -32 -29 -50 l-29
-32 -71 69 c-39 39 -71 75 -71 81 0 15 52 61 75 67 32 7 38 3 82 -59z"/>
<path d="M1858 4351 c-90 -68 -174 -148 -166 -156 4 -4 39 22 77 57 39 36 93
80 120 99 47 32 62 49 42 49 -4 0 -37 -22 -73 -49z"/>
<path d="M3263 4262 c26 -26 47 -53 47 -60 0 -14 26 -16 34 -3 7 10 -98 111
-116 111 -7 0 9 -22 35 -48z"/>
<path d="M2605 4291 c3 -5 20 -12 38 -16 96 -19 245 -81 309 -128 15 -11 31
-17 35 -13 20 19 -141 103 -271 140 -94 28 -121 32 -111 17z"/>
<path d="M1806 4178 l-86 -83 -32 27 c-18 15 -36 28 -39 28 -3 0 -26 -28 -50
-62 -57 -78 -65 -92 -51 -87 5 2 31 32 57 67 l46 63 34 -30 35 -30 86 84 c47
47 89 85 95 85 5 0 9 5 9 10 0 22 -22 7 -104 -72z"/>
<path d="M3152 4231 c2 -7 7 -12 11 -12 12 1 9 15 -3 20 -7 2 -11 -2 -8 -8z"/>
<path d="M3206 4227 c-17 -13 -17 -15 6 -42 17 -19 30 -26 41 -22 24 9 21 30
-6 55 -20 19 -26 20 -41 9z"/>
<path d="M2142 4210 c-24 -11 -41 -24 -38 -29 7 -10 86 27 86 40 0 11 3 12
-48 -11z"/>
<path d="M2650 4211 c0 -6 8 -11 18 -11 15 0 110 -28 120 -35 1 -1 -5 -19 -13
-39 -9 -21 -14 -43 -12 -49 2 -7 12 9 21 35 l18 47 29 -14 c33 -17 39 -18 39
-6 0 12 -133 67 -182 76 -26 5 -38 4 -38 -4z"/>
<path d="M3184 4178 c9 -13 24 -38 33 -55 20 -40 37 -44 21 -5 -18 40 -48 82
-60 82 -6 0 -3 -10 6 -22z"/>
<path d="M2861 4022 c-92 -154 -102 -183 -74 -220 11 -15 45 -46 76 -70 l57
-43 105 98 c58 54 113 97 121 95 12 -3 13 1 5 16 -9 18 -15 14 -73 -39 l-63
-58 -26 25 -27 25 49 51 c27 28 49 57 49 65 0 8 -24 -12 -53 -43 l-53 -57 -49
43 c-28 24 -52 47 -54 52 -2 5 18 43 43 85 26 41 45 80 43 86 -2 6 -36 -44
-76 -111z m94 -181 l49 -51 -41 -41 -41 -41 -56 41 c-82 61 -90 84 -56 159
l20 44 37 -30 c21 -17 60 -53 88 -81z"/>
<path d="M2560 4111 c0 -6 15 -11 33 -11 44 0 47 -4 35 -47 -15 -57 -1 -111
34 -129 22 -11 29 -21 25 -35 -3 -10 -1 -19 5 -19 5 0 12 8 15 19 3 13 11 17
24 14 10 -3 19 -1 19 3 0 5 -24 16 -52 24 l-53 15 -3 49 c-2 27 -1 60 2 73 6
20 9 21 34 11 50 -21 62 -39 53 -80 -8 -35 0 -58 21 -58 11 0 40 60 35 73 -3
7 -10 -3 -17 -20 -12 -34 -30 -44 -30 -19 0 8 4 26 10 40 11 30 -2 46 -61 77
-47 24 -129 37 -129 20z"/>
<path d="M1650 4072 c0 -9 74 -72 84 -72 17 0 1 20 -39 49 -25 18 -45 28 -45
23z"/>
<path d="M1620 4013 c0 -16 68 -75 74 -65 3 6 -12 25 -34 42 -22 17 -40 28
-40 23z"/>
<path d="M1506 3926 c-42 -43 -91 -164 -118 -296 -21 -99 -30 -352 -14 -378 6
-10 43 -12 176 -6 l168 7 7 -52 c5 -35 3 -56 -5 -66 -10 -12 -10 -15 3 -15 8
0 17 -13 21 -31 11 -54 7 -69 -19 -79 -14 -5 -25 -14 -25 -19 0 -20 22 -22 47
-6 22 15 25 22 20 59 -6 47 -25 158 -33 198 l-6 28 -168 -7 -168 -6 -7 75
c-17 178 45 465 122 566 43 57 94 61 142 13 12 -12 23 -16 27 -10 3 6 4 11 3
13 -81 59 -123 62 -173 12z"/>
<path d="M3370 3840 c0 -6 13 -40 29 -75 30 -66 52 -80 79 -53 16 16 29 2 37
-43 6 -31 4 -37 -14 -42 -25 -6 -29 -52 -7 -82 12 -17 16 -17 31 -5 13 11 16
27 12 85 -5 83 -20 120 -45 110 -49 -21 -51 -19 -82 49 -29 63 -40 79 -40 56z"/>
<path d="M1619 3739 c-18 -36 -19 -43 -6 -57 12 -14 13 -27 6 -70 -6 -30 -9
-66 -7 -80 4 -24 5 -23 11 11 4 20 10 53 13 73 4 26 10 34 22 32 12 -2 19 -20
27 -62 12 -69 35 -91 105 -101 l45 -6 29 87 30 87 -37 34 c-21 18 -42 31 -48
27 -6 -3 3 -14 21 -25 17 -11 33 -26 37 -35 3 -9 -4 -48 -16 -86 l-23 -70 -46
6 c-61 8 -82 33 -82 96 0 46 -2 49 -37 67 -31 14 -37 23 -35 43 1 13 7 29 12
34 14 14 57 -2 95 -35 19 -17 35 -26 35 -19 0 17 -39 49 -88 70 l-42 19 -21
-40z"/>
<path d="M1553 3633 c1 -21 -3 -56 -7 -78 -6 -26 -5 -37 1 -30 13 13 35 124
27 136 -12 20 -22 7 -21 -28z"/>
<path d="M1761 3656 c-20 -24 -9 -51 19 -51 21 0 25 5 25 30 0 34 -24 45 -44
21z m39 -21 c0 -8 -7 -15 -15 -15 -8 0 -15 7 -15 15 0 8 7 15 15 15 8 0 15 -7
15 -15z"/>
<path d="M1660 3466 c0 -9 30 -21 80 -33 44 -11 80 -16 80 -12 0 8 -64 29 -90
29 -8 0 -27 7 -42 14 -23 12 -28 12 -28 2z"/>
<path d="M3576 3428 c-3 -13 -6 -58 -6 -101 0 -59 3 -78 13 -74 9 3 11 26 9
84 -3 51 0 83 7 87 15 10 14 26 -3 26 -7 0 -16 -10 -20 -22z"/>
<path d="M3357 3288 c-6 -47 -3 -68 7 -57 9 10 17 109 8 109 -5 0 -12 -23 -15
-52z"/>
<path d="M3083 3103 c9 -9 20 -13 24 -9 4 4 1 11 -7 16 -25 16 -35 11 -17 -7z"/>
<path d="M3328 3091 c-3 -17 -1 -31 3 -31 13 0 22 41 11 52 -6 6 -11 -1 -14
-21z"/>
<path d="M1902 2988 c6 -18 28 -21 28 -4 0 9 -7 16 -16 16 -9 0 -14 -5 -12
-12z"/>
<path d="M3208 2949 c33 -31 42 -59 18 -59 -8 0 -29 -26 -46 -57 -18 -32 -39
-66 -48 -75 -12 -15 -13 -18 -1 -18 8 0 32 31 54 70 40 69 40 69 53 44 12 -22
11 -28 -2 -43 -17 -19 -20 -31 -8 -31 15 0 43 63 32 74 -5 5 -10 27 -10 47 0
30 -6 42 -29 58 -43 31 -51 25 -13 -10z"/>
<path d="M1967 2899 c-11 -6 -25 -26 -33 -45 -18 -43 -61 -67 -76 -41 -5 10
-13 15 -18 12 -7 -4 24 -66 57 -114 2 -2 6 -2 9 2 3 3 -1 16 -10 29 -22 31
-21 33 19 58 19 12 35 29 35 38 0 9 12 29 27 44 27 29 23 36 -10 17z"/>
<path d="M3050 2720 c0 -5 7 -10 16 -10 8 0 12 5 9 10 -3 6 -10 10 -16 10 -5
0 -9 -4 -9 -10z"/>
<path d="M3177 2713 c-4 -3 -7 -13 -7 -21 0 -12 3 -12 15 -2 8 7 15 16 15 21
0 11 -14 12 -23 2z"/>
<path d="M3124 2679 c-11 -23 -19 -28 -27 -20 -19 19 -36 12 -52 -19 -33 -65
-1 -108 41 -55 34 43 77 125 65 125 -6 0 -18 -14 -27 -31z m-31 -35 c8 -9 -11
-44 -23 -44 -6 0 -10 8 -10 18 0 27 18 41 33 26z"/>
<path d="M1625 2640 c9 -16 18 -30 21 -30 2 0 -2 14 -11 30 -9 17 -18 30 -21
30 -2 0 2 -13 11 -30z"/>
<path d="M1942 2649 c2 -6 8 -10 13 -10 5 0 11 4 13 10 2 6 -4 11 -13 11 -9 0
-15 -5 -13 -11z"/>
<path d="M1810 2489 c0 -20 55 -79 75 -79 11 0 37 5 59 11 28 8 35 14 27 22
-8 8 -20 6 -45 -6 -33 -15 -36 -15 -60 4 -14 11 -28 28 -31 39 -7 21 -25 28
-25 9z"/>
<path d="M2007 2446 c-24 -19 -4 -31 22 -14 25 15 38 4 47 -38 4 -22 1 -36
-12 -48 -16 -17 -24 -17 -69 -1 -17 6 -17 4 4 -14 28 -25 39 -26 69 -5 17 12
22 25 22 58 0 64 -40 94 -83 62z"/>
<path d="M2860 2021 c0 -11 -9 -22 -20 -26 -11 -3 -20 -11 -20 -16 0 -13 12
-11 38 7 23 16 29 39 12 49 -5 3 -10 -3 -10 -14z"/>
<path d="M2009 1800 c12 -11 28 -17 34 -13 12 8 -20 33 -42 33 -12 -1 -10 -6
8 -20z"/>
<path d="M2099 1816 c-2 -3 -2 -61 1 -129 4 -111 8 -128 27 -149 12 -13 23
-34 26 -48 3 -20 5 -17 6 10 1 25 -5 39 -19 48 -18 11 -20 23 -20 136 0 108
-6 146 -21 132z"/>
<path d="M3185 3371 c-3 -5 -1 -12 4 -15 5 -3 11 1 15 9 6 16 -9 21 -19 6z"/>
<path d="M2187 2021 c3 -12 10 -21 15 -21 13 0 6 32 -9 37 -7 3 -9 -3 -6 -16z"/>
<path d="M2030 1967 c0 -65 14 -81 65 -75 32 4 41 -1 76 -39 22 -24 42 -43 45
-43 13 0 -25 51 -84 113 -66 67 -98 85 -48 26 28 -33 24 -54 -10 -47 -16 3
-19 13 -20 58 -1 74 -24 81 -24 7z"/>
<path d="M2225 1887 c10 -15 20 -25 23 -22 3 3 -5 16 -17 28 l-23 22 17 -28z"/>
<path d="M3375 4610 c-18 -20 -16 -22 81 -122 55 -57 117 -125 138 -151 l39
-48 -24 -17 c-32 -22 -98 -86 -79 -76 8 4 36 25 62 46 l47 39 65 -95 c36 -51
66 -96 66 -99 0 -3 -21 -17 -46 -32 -25 -15 -43 -29 -40 -32 10 -10 106 59 99
71 -3 6 -44 64 -91 129 -83 116 -139 183 -256 304 -51 53 -58 64 -46 78 19 23
6 28 -15 5z"/>
<path d="M1390 4370 c-23 -23 -24 -30 -9 -63 10 -22 3 -35 -74 -136 -198 -261
-299 -540 -300 -826 -1 -209 43 -383 144 -574 48 -90 145 -241 154 -241 11 0
75 46 75 54 0 13 -71 128 -77 123 -2 -3 12 -30 31 -60 20 -31 36 -58 36 -61 0
-2 -14 -13 -32 -24 l-32 -21 -44 65 c-65 97 -146 258 -181 357 -90 259 -79
579 31 845 74 181 265 463 318 470 35 5 50 20 50 52 0 29 -27 60 -53 60 -9 0
-26 -9 -37 -20z"/>
<path d="M3628 4124 c13 -25 42 -50 42 -37 0 5 -12 20 -26 34 -24 21 -26 22
-16 3z"/>
<path d="M1110 4027 c0 -23 22 -38 37 -25 10 8 10 14 2 24 -14 18 -39 18 -39
1z"/>
<path d="M960 3014 c0 -17 22 -14 28 4 2 7 -3 12 -12 12 -9 0 -16 -7 -16 -16z"/>
<path d="M3930 2630 c0 -5 5 -10 10 -10 6 0 10 5 10 10 0 6 -4 10 -10 10 -5 0
-10 -4 -10 -10z"/>
<path d="M1195 2380 c-3 -5 3 -10 14 -10 12 0 21 5 21 10 0 6 -6 10 -14 10 -8
0 -18 -4 -21 -10z"/>
<path d="M1496 2204 c-9 -8 -16 -21 -16 -27 0 -25 32 -57 55 -57 23 0 55 32
55 57 0 19 -30 43 -55 43 -13 0 -31 -7 -39 -16z"/>
<path d="M2260 391 c-21 -6 -18 -8 24 -14 63 -9 235 -9 306 0 l55 7 -40 7
c-51 10 -312 9 -345 0z"/>
</g>
</svg>